<svg id="Layer_1" xmlns="http://www.w3.org/2000/svg" viewBox="0 0 116 110"><style>.st0{fill:url(#SVGID_1_);} .st1{fill:url(#SVGID_2_);} .st2{fill:url(#SVGID_3_);} .st3{fill:url(#SVGID_4_);}</style><linearGradient id="SVGID_1_" gradientUnits="userSpaceOnUse" x1="49.5" y1="5.872" x2="49.5" y2="109.616"><stop offset="0" stop-color="#41A8F8"/><stop offset="1" stop-color="#337DE8"/></linearGradient><path class="st0" d="M99 52.1c-1.1.4-2.3.8-3.5 1.1v43.1H58.9v-8.7h28.8v-4.4H58.9v-5.4h28.8v-4.4H58.9V68h28.8v-4.4H58.9v-5.4h28.8V54c-.7 0-1.3-.1-1.9-.2H58.9v-5.4h13.6c-1.7-1.3-3.2-2.8-4.5-4.4h-9.1v-5.4h5.7c-.7-1.4-1.2-2.9-1.6-4.4h-4.1v-7.6H62c0-.9.1-1.9.2-2.8h-3.3V14S17.1 20.9 0 23.9v76.3c16.9 2.9 58.9 9.8 58.9 9.8v-9.8c11.1 0 22.3-.1 33.4 0 1.9-.1 4 0 5.6-1.1 1.3-1.9 1-4.4 1.1-6.6-.1-13.5 0-26.9 0-40.4zM38.3 76.3c-1.9.9-4.6 0-6.8.1C30 69.1 28.3 62 27 54.7c-1.3 7-3 14-4.5 21-2.1-.1-4.3-.2-6.4-.4-1.8-9.6-4-19.1-5.7-28.7 1.9-.1 3.8-.2 5.7-.2 1.1 6.9 2.4 13.8 3.4 20.8 1.6-7.1 3.2-14.3 4.7-21.4l6.3-.3c1.5 7.4 3 14.7 4.6 22 1.3-7.6 2.6-15.1 4-22.6l6.6-.3c-2.5 10.6-4.7 21.2-7.4 31.7z"/><linearGradient id="SVGID_2_" gradientUnits="userSpaceOnUse" x1="89" y1="5.872" x2="89" y2="109.616"><stop offset="0" stop-color="#41A8F8"/><stop offset="1" stop-color="#337DE8"/></linearGradient><path class="st1" d="M83 6h12v3.9H83z"/><linearGradient id="SVGID_3_" gradientUnits="userSpaceOnUse" x1="89.049" y1="5.872" x2="89.049" y2="109.616"><stop offset="0" stop-color="#41A8F8"/><stop offset="1" stop-color="#337DE8"/></linearGradient><path class="st2" d="M103.1 18.5l2.8-2.8c-.9-1-1.8-1.9-2.8-2.8l-2.8 2.8c-3.1-2.4-7-3.9-11.2-3.9-9.9 0-18 7.9-18 17.6C71 39.1 79 47 89 47s18-7.9 18-17.6c0-4.1-1.5-7.9-3.9-10.9zM89 43.1c-7.7 0-14-6.1-14-13.7s6.3-13.7 14-13.7 14 6.1 14 13.7-6.3 13.7-14 13.7z"/><linearGradient id="SVGID_4_" gradientUnits="userSpaceOnUse" x1="89" y1="5.872" x2="89" y2="109.616"><stop offset="0" stop-color="#41A8F8"/><stop offset="1" stop-color="#337DE8"/></linearGradient><path class="st3" d="M87 19.7h4v11.7h-4z"/></svg>