<svg id="Слой_1" xmlns="http://www.w3.org/2000/svg" viewBox="0 0 116 144.5"><style>.st0{fill:url(#SVGID_1_);} .st1{fill:url(#SVGID_2_);} .st2{fill:url(#SVGID_3_);} .st3{fill:url(#SVGID_4_);} .st4{fill:url(#SVGID_5_);} .st5{fill:url(#SVGID_6_);} .st6{fill:url(#SVGID_7_);}</style><title>Asset 1</title><linearGradient id="SVGID_1_" gradientUnits="userSpaceOnUse" x1="58.05" y1="144.5" x2="58.05" y2=".4"><stop offset="0" stop-color="#337DE8"/><stop offset="1" stop-color="#41A8F8"/></linearGradient><path class="st0" d="M115.7 128.2c-.5-3.1-1.2-6.2-2.5-9.1-1.6-3.8-4.5-6.5-7.7-9-2.9-2.3-6.1-4.3-9.4-6-.9-.5-1-.5-.6-1.6 2-5.9 3.1-12 3-18.3-.1-4.5-.9-8.8-3.3-12.6-.6-1-1.5-1.9-2.2-2.9-.1-.2-.3-.4-.5-.6.7 0 1.6.4 2.8 1.4l2.4 2.1.2-.1-.3-.9c-1.1-2.4-2.9-4.2-4.9-5.8-1.6-1.3-3.4-2.4-5.5-2.8-.7-.1-1.4 0-2.3 0 2.5 4.2 4.7 8.3 5.3 13-1.8-4.8-4.5-8.9-7.9-12.8.2-.2.5-.3.7-.4 2.9-1.1 4.8-3.2 6-6 1.9-4.6 3-9.4 3.7-14.3.5-3.8.7-7.6.4-11.4-.5-5.2-1.5-10.1-4.7-14.4-1.8-2.6-4.3-4.2-7.2-5.3-.8-.3-1.3-.1-1.7.5-.6.9-1.2 1.8-1.7 2.7-1.9 3.6-3.8 7.1-5.8 10.7-.7 1.2-.8 2.4-.1 3.6 2 3.4 3.9 6.8 6 10.1 1 1.6 1.6 3.1 1.4 5-.1 1 0 2 0 3.2-1.2-1.2-2.6-.9-3.9-1.2-.8-.2-1.6-.5-2.3-.9-1.4-.9-2.8-1-4.3-.1-1.5.8-3 1.5-4.7 1.9-1.7.4-3.3.8-5 1.3-2.3.7-4.7.6-7-.1-1.7-.5-3.5-.8-5.2-1.3-1.3-.4-2.6-.8-3.8-1.5-1.9-1.2-3.7-1.2-5.6.1-.5.4-1.2.6-1.8.7-1 .3-1.9.4-2.9.6.1-1.4.5-2.9 1.6-4.1 1.6-1.9 3.7-3.3 5.8-4.6 8.5-5.1 17.6-8.5 27.2-10.6.5-.1 1.2 0 1.6-.2.8-.4 1.6-.9 2-1.6 1.7-2.6 3.2-5.5 4-8.6.3-1.2.2-1.3-.8-2-3.2-2-6.7-2.8-10.2-2.3-1.4.1-2.8.2-4.3.3 1.4-.7 2.7-.9 4-1 4-.3 7.8.6 11.6 1.5 1.1.2 1.5.2 2.1-.8.3-.5.6-1 .8-1.6.5-1.3.2-2.4-.8-3.3C75.5 5 73.2 3.9 70.8 3 67.2 1.6 63.3.8 59.4.5c-.1 0-.3 0-.4-.1h-6.6c-.9.1-1.7.3-2.5.4-9.3 1.4-17.3 5.3-24 12-4.7 4.7-7.5 10.4-8.8 16.9-.8 4.2-1.1 8.4-.7 12.7.8 8.2 3.4 15.6 9.2 21.7.9.9 1.9 1.8 2.9 2.5 3.4 2.5 4.2 5.8 2.3 9.6 0 .1 0 .2-.1.3 1-.2 1-.2 2.9-3.5l2.4 3c2.4 2.9 5 5.7 7.4 8.6.3.4.6.9.6 1.5.1 1.7.1 3.4.1 5.1 0 1.2-.2 1.5-1.4 1.9-3.8 1.3-7.5 2.6-11.2 3.9-.8.2-1.5.6-2.1 1.1-.5.4-.8 1-.7 1.8 0 .2-.3.5-.5.6-4.6 2-9.2 4.2-13.4 6.9-3.1 2-6.1 4.2-8.6 6.9-2.8 3.1-4.4 6.8-5.2 10.9-.4 2.1-.6 4.2-.9 6.3 0 .2-.1.4-.1.6v5.7c.1 1.2.3 2.3.4 3.5 0 .2.1.5.1.7.1.7.5 1 1.2 1 3.3-.1 6.6 0 9.8-.1 6-.1 12-.3 18-.4 4.9-.1 9.8-.3 14.7-.4 3.1-.1 6.3.1 9.5.1 4-.1 7.9-.3 11.8-.3 3 0 6.1 0 9.1.1.4 0 .8.1 1.1.3 1.8 1 3.8 1.8 5.9 2.2h3c.6-.2 1.3-.3 2.1-.6.7-.2 1.5-.4 2.2-.8 1.3-.8 2.6-.8 4.1-.8 7.2.2 14.3.3 21.4.4.7 0 1.1-.2 1.2-.9.1-1 .3-1.9.4-2.9 0-.2 0-.3.1-.5v-7.1c-.1-1-.2-2.1-.4-3.1zm-43.3-83l-3.3.2c1.2-.7 2.2-.7 3.3-.2zm-11.7 4.9c.3-1.1.4-1.2 1.4-.7.6.3 1 .3 1.5-.2 1.1-1.1 2.5-1.7 4-1.8 2.1-.2 4.3-.3 6.5-.3 2.5 0 3.5.9 3.7 3.4.2 2.5-.3 5.1-1.4 7.4-.4.8-1.1 1.4-2 1.5-1.7.2-3.3.4-4.9.6-1.3-.1-2.5-.2-3.5-.5-1.4-.2-2.4-.9-3.2-2-1.4-2-2-4.2-2.2-6.6 0-.3 0-.5.1-.8zm-19.2-4.8l-2.9-.2c1-.5 2-.5 2.9.2zM34 50c.4-2.2 1.1-2.8 3.3-3h2.1v-.1c1.6.2 3.3.3 4.9.3 1.1.2 2.1.7 2.9 1.5.7.7 1.4.8 2.2.3.7-.4 1.1-.3 1.3.5.2.9.2 1.8.1 2.7-.2 1.1-.6 2.2-1 3.3-1.1 2.8-3.1 4.2-6.1 4.2-2.1 0-4.3-.2-6.4-.4-1-.1-1.7-.7-2.1-1.6-1.1-2.4-1.6-5-1.2-7.7zm-2.2 49.1c3.5-1.4 7.1-2.8 10.6-4.2.4-.1.7-.1.9.3 2.9 5.2 6.8 9.8 10.8 14.3.3.3.5.7.7 1-.1.4-.2.7-.3 1.1-1.3 2.9-2.9 5.6-4.9 8.1-.6.9-.8.9-1.5.1-4.5-5.3-9.1-10.5-13.6-15.8-1-1.2-2-2.5-3-3.7-.5-.6-.5-.9.3-1.2zm23.5 27.7c-2.9 3.3-4.5 7.2-5.7 11.3-.7 2.2-.4 1.9-2.5 1.9-6.7.2-13.5.3-20.2.5v.1c-6.8 0-13.6 0-20.4-.2-1 0-2-.1-3-.1-.7-.1-.9-.5-1-1.1-.1-.9-.2-1.9-.2-2.8-.1-5.1.4-10.1 2.1-14.9 1.5-4.4 4.6-7.6 8.3-10.3 4.6-3.3 9.6-5.9 14.9-8 .6-.3 1.3-.5 1.9-.8.9-.4 1.2-.2 1.8.5 5.3 6.7 10.8 13.3 16.7 19.4.8.9 1.1.9 1.8-.1.4-.5.8-.7 1.3-.2l4 3.6c.4.3.6.7.2 1.2zm-.3-20.3c-3.4-3.2-6.4-6.9-8.9-10.9-.4-.5-.6-1.1-.6-1.7v-7c.1-.1.1-.3.1-.4l1 1c2.6 2.7 5.7 3.5 9.3 3.2 1.2-.1 2.5-.2 3.8-.4 2-.3 3.6-1.4 5.1-2.7.6-.5 1.2-1.1 1.8-1.6l.3.1v8.2c0 .4-.1.8-.3 1.2-2 4-4.4 7.7-7.6 10.9-1.7 1.8-2.2 1.8-4 .1zm4.9 2.9c1.8-2.6 3.7-5.1 5.5-7.7l1.1-1.5.2.1-3.9 14.2c-1.3-1-2.5-2.4-3.3-3.9-.1-.2.2-.9.4-1.2zm12.2 30.3c-1.4 0-2.9 0-4.2-.2-.3 0-.6-.3-.7-.6-1.1-2.4-2-5-3.3-7.3-1-1.7-2.4-3.2-3.6-4.7-.4-.5-.5-.8 0-1.3 1.1-1.1 2.1-2.2 3.2-3.4 1.3 6.6 3.9 12.5 8.7 17.3l-.1.2zM77.7 68c-.9 3.5-2.9 6.4-5.2 9.1-2.7 3-5.5 6-8.3 9-2 2.2-4.7 3.1-7.6 3.2-1.2.1-2.5 0-3.7-.1-1.7-.2-3.3-.9-4.5-2.1-5.3-4.9-10.1-10.1-13.9-16.2-.4-.7-.7-1.6-.7-2.4-.2-2.9-.8-5.7-1.6-8.4-.1-.5-.6-1-1.1-1.3-1.3-.8-2.2-1.8-2.8-3.1-1.3-2.6-2.4-5.2-2.4-8.2 0-.7.2-1.4.4-2 .4-.9 1.1-1.1 2-.9 1.2.3 2 1.1 2.5 2.1.8 1.5 1.3 3.1 1.4 4.8.2 2.2.8 4.3 1.7 6.3.7 1.8 1.8 2.9 3.9 3.1 2.6.3 5.2.6 7.8.3 2.1-.3 3.7-1.4 4.9-3.2 1.1-1.7 1.9-3.6 2.4-5.5.2-.8.6-1.1 1.4-1.1h3.3c.7 0 1.2.3 1.4 1.1.4 1.3.9 2.5 1.4 3.8 1.4 3.5 4 5.2 7.7 5.1 2.4 0 4.8-.4 7.2-.7.8-.1 1.6-.6 1.9-1.3.6-1.2 1.1-2.5 1.6-3.7l.3-.9c-.1 4.4-.3 8.8-1.4 13.2zm3.3-9.4c-.2-.1-.3-.5-.3-.7v-3.8h-.1c.1-2 .2-4.1.3-6.1.2-2 1.7-3.7 3.7-4.1 1.2-.2 1.8.1 2.1 1.3.3 1.5.3 3.2-.1 4.7-.5 2.3-1.2 4.5-2.7 6.4-.6.8-1.4 1.5-2.2 2.2-.1.1-.5.2-.7.1zm32.5 79.3c0 .4 0 .9-.1 1.3-.1 1.1-.3 1.3-1.4 1.3H92.7c.3-.4.4-.7.3-.8 1.7-2.5 2.4-5.3 2.3-8.3 0-.6-.2-.7-.7-.4-.6.3-1.1.7-1.7 1-.8.3-1.5.7-2.3.9-2 .5-3.8-.6-4.4-2.6 1 .1 1.9.3 2.8.3.5 0 1-.3 1.5-.5s.4-.5-.1-.7c-.3-.1-.7-.2-1-.3-2.9-1-4.2-3.4-3.4-6.4.3-1.1.8-2.2 1.3-3.2 2-4.2 4.1-8.3 6.2-12.5.2-.5.5-.9 1.1-.6 4.7 2.5 9.3 5.1 12.9 9 2.9 3 4.4 6.7 5.1 10.8.7 3.9 1.1 7.8.9 11.7z"/><linearGradient id="SVGID_2_" gradientUnits="userSpaceOnUse" x1="56.05" y1="81.3" x2="56.05" y2="73.959"><stop offset="0" stop-color="#337DE8"/><stop offset="1" stop-color="#41A8F8"/></linearGradient><path class="st1" d="M64.1 74.1c-4.4 1-8.8.8-13.2.4-1.1-.1-2.1-.4-3.2-.5-.2-.1-.4 0-.6.1.1.2.2.4.3.5.2.2.5.4.7.7.7 1 1.4 2 2.1 2.9.8 1.1 1.7 2.1 3 2.6 2.5 1 5.7.6 7.9-2.1 1.2-1.5 2-3.3 3.7-4.4l.2-.2c-.3 0-.6-.1-.9 0zM55.8 79c-2.4.1-3.8-1.6-5.1-3.4h9.9C59.4 77.5 58 79 55.8 79z"/><linearGradient id="SVGID_3_" gradientUnits="userSpaceOnUse" x1="55.65" y1="70.525" x2="55.65" y2="66.2"><stop offset="0" stop-color="#337DE8"/><stop offset="1" stop-color="#41A8F8"/></linearGradient><path class="st2" d="M52 68.6c.4 0 .8.1 1.1.5 1.4 1.9 3.8 1.9 5.2 0 .3-.3.6-.5.9-.7l.1.5c.3-.3.9-.4.9-.7.1-.6-.1-1.2-.2-1.8 0-.1-.3-.1-.4-.1-.1 0-.2.2-.2.3 0 .2.1.4.1.6.1.5-.1.7-.6.6-.6-.2-1 .1-1.4.5-1.5 1.6-2.3 1.6-3.8 0-.3-.4-.8-.7-1.4-.5-.5.2-.7-.2-.6-.6 0-.3.1-.5.1-.7 0-.1-.1-.2-.2-.3-.1 0-.3.1-.3.1-.1.6-.3 1.1-.2 1.7 0 .2.6.6.9.6z"/><linearGradient id="SVGID_4_" gradientUnits="userSpaceOnUse" x1="29" y1="52.9" x2="29" y2="46.5"><stop offset="0" stop-color="#337DE8"/><stop offset="1" stop-color="#41A8F8"/></linearGradient><path class="st3" d="M28.3 47c-.2-.2-.5-.4-.8-.5l-.1.1 3.2 6.3c-.1-.8-.2-1.6-.4-2.4-.4-1.3-.8-2.6-1.9-3.5z"/><linearGradient id="SVGID_5_" gradientUnits="userSpaceOnUse" x1="69.867" y1="54.815" x2="69.867" y2="48.841"><stop offset="0" stop-color="#337DE8"/><stop offset="1" stop-color="#41A8F8"/></linearGradient><path class="st4" d="M63.7 53.5c.2-.1.5-.3.7-.6.4-.5.9-1.1 1.4-1.8.4 2.6 1.1 3.6 2.6 3.7 2.4.2 3-1.6 3.4-3.6.3.1.5.2.7.4.6.6 1.2 1.2 1.7 1.8.4.4.9.7 1.3.3.6-.5 1-1.2 1.5-1.9l-1.7-.1 1.3-1.2-2.1.2v-.1l1.2-.9-.3-.5c-.2.1-.4.1-.6.2-.8.4-1.7.4-2.5 0-.6-.2-1.4-.4-2.1-.5-2.3-.3-5.7.5-7.3 3.6-.2.2-.2.7-.1.8.3.2.6.3.9.2z"/><linearGradient id="SVGID_6_" gradientUnits="userSpaceOnUse" x1="41.758" y1="54.835" x2="41.758" y2="49.035"><stop offset="0" stop-color="#337DE8"/><stop offset="1" stop-color="#41A8F8"/></linearGradient><path class="st5" d="M35.7 53c.9 1 1.3 1 2.2.1.6-.5 1.2-1.1 1.8-1.7 1.2 3 1.9 3.6 3.2 3.4 1.5-.1 2.2-1 2.7-3.4.2.1.3.2.4.3l1.2 1.5c.4.5.9.6 1.4.3.6-.3.2-.7 0-1-1.2-2.3-4.5-3.8-7.3-3.4-1.8.3-3.5 1.3-5.3.4l-.2.2 1.4.9-.1.2-2.1-.2 1.4 1.1-1.8.1c.3.5.8.8 1.1 1.2z"/><linearGradient id="SVGID_7_" gradientUnits="userSpaceOnUse" x1="83.138" y1="53" x2="83.138" y2="46"><stop offset="0" stop-color="#337DE8"/><stop offset="1" stop-color="#41A8F8"/></linearGradient><path class="st6" d="M82.2 48.3c-.6 1.5-.8 3.1-.7 4.7l3.3-7c-1.4.3-2.2 1.1-2.6 2.3z"/></svg>