<svg id="Layer_1" xmlns="http://www.w3.org/2000/svg" viewBox="0 0 114 124"><style>.st0{fill:url(#SVGID_1_);} .st1{fill:url(#SVGID_2_);} .st2{fill:url(#SVGID_3_);} .st3{fill:url(#SVGID_4_);}</style><linearGradient id="SVGID_1_" gradientUnits="userSpaceOnUse" x1="57.273" y1=".409" x2="57.273" y2="123.185"><stop offset="0" stop-color="#53A3EF"/><stop offset="1" stop-color="#2A7BEF"/></linearGradient><path class="st0" d="M111.1 36.1L99.9 32l1.3-25.2c.1-1.7-1.1-3.1-2.8-3.2L36.5.4c-1.7 0-3.1 1.2-3.2 2.8l-1.1 20L4 29.3C1.8 29.8.5 31.9.9 34l17.7 83.1c.2 1.1.8 2 1.8 2.5.7.5 1.5.6 2.2.7.2.1.5 0 .8-.1l29.7-6.3 26.3 9.6c.5.2.9.3 1.4.3.5 0 1.1-.2 1.7-.5 1-.4 1.7-1.2 2.1-2.2l8.9-24.6c1.7.1 3.1-1.1 3.2-2.8l.4-7.2 16.5-45.3c.6-2.1-.4-4.4-2.5-5.1zm-88.2 82.2c-.5.1-1 0-1.5-.3s-.8-.8-.9-1.2L2.9 33.6c-.2-1.1.5-2.1 1.5-2.4l58.7-12.5c1.1-.2 2.1.5 2.4 1.5l17.4 82.1c.4 1.7-.7 3.3-2.4 3.7l-57.6 12.3zm59.6 2.1c-.2.5-.5.9-1 1.1-.5.2-1.1.3-1.5.1l-23.2-8.5 25.3-5.4c2.2-.5 3.5-2.6 3.1-4.7l-1.5-7 7.7.4-8.9 24zm29.1-79.9L97.3 79.7l2.4-45.6 10.7 3.9c1 .3 1.6 1.5 1.2 2.5z"/><linearGradient id="SVGID_2_" gradientUnits="userSpaceOnUse" x1="41.659" y1=".476" x2="41.659" y2="123.251"><stop offset="0" stop-color="#53A3EF"/><stop offset="1" stop-color="#2A7BEF"/></linearGradient><path class="st1" d="M52.3 77.9c-3.5-.5-4.8-4.4-1.3-7.1l1.5-1.1-.9-1.4c-.2-.3-.3-.7-.2-1 .1-.4.3-.7.7-.9l6.3-3.6c.3-.2.8-.2 1.1-.1.4.1.7.4.8.7l.1.3c1.8-1.4 4.3-4.2.2-9.5-7.2-9.4-20.9-10.9-30.8-3.5-9.9 7.5-12.3 20.9-5.3 30.2 7 9.3 21.3 11.5 31.2 4.1 1.4-1.1 3.8-3.2 2.8-5.2-1.4-2.7-4.1-1.6-6.2-1.9zm-24.8-9.7c-1.1-1.6-.8-3.7.7-4.9 1.6-1.2 3.8-.9 4.9.7 1.2 1.5.8 3.7-.7 4.9-1.6 1.2-3.8.9-4.9-.7zm8.7 12.5c-1.6 1.2-3.8.9-4.9-.7-1.2-1.5-.8-3.7.7-4.9 1.6-1.2 3.8-.9 4.9.7 1.2 1.5.9 3.7-.7 4.9zm4.5-21.9c-1.6 1.2-3.8.9-4.9-.7-1.1-1.6-.8-3.7.7-4.9 1.6-1.2 3.8-.9 4.9.7 1.2 1.5.9 3.7-.7 4.9zm7.2 2.9c-.6-1.2-.4-2.2-.3-3.4.2-1.1.4-2.6 0-4.6-.1-.5.1-1.1.6-1.4.4-.3 1-.4 1.5-.2 2.8 1.3 6.3 3.1 7.3 4.5.8 1.2.9 2.8.4 4.2-.5 1.5-1.8 2.7-3.4 3.3-.6.1-1.2.2-1.7.2-1.9 0-3.6-1-4.4-2.6z"/><linearGradient id="SVGID_3_" gradientUnits="userSpaceOnUse" x1="62.567" y1=".476" x2="62.567" y2="123.251"><stop offset="0" stop-color="#53A3EF"/><stop offset="1" stop-color="#2A7BEF"/></linearGradient><path class="st2" d="M59.5 63.7c-.1-.1-.1-.2-.2-.2s-.2 0-.4.1l-6.3 3.6c-.1.1-.3.2-.3.3 0 .1.1.3.1.3l16.8 24.5c.5.8 1.7 1 2.6.5.9-.5 1.3-1.6.8-2.4L59.5 63.7z"/><linearGradient id="SVGID_4_" gradientUnits="userSpaceOnUse" x1="52.488" y1=".476" x2="52.488" y2="123.251"><stop offset="0" stop-color="#53A3EF"/><stop offset="1" stop-color="#2A7BEF"/></linearGradient><path class="st3" d="M56.4 60.5c.4-1.1.3-2.3-.3-3.3s-3.2-2.5-6.8-4.2h-.2c-.1 0-.3.1-.4.1-.1.1-.2.2-.2.4.4 2.2.2 3.7 0 4.9-.2 1.1-.3 2 .2 2.9.8 1.7 3 2.5 4.9 1.9 1.3-.4 2.3-1.4 2.8-2.7z"/></svg>